<svg role="img" viewBox="0 0 24 24" xmlns="http://www.w3.org/2000/svg" id="Simkl--Streamline-Simple-Icons.svg" height="24" width="24"><desc>Simkl Streamline Icon: https://streamlinehq.com</desc><title>Simkl</title><path d="M3.84 0A3.832 3.832 0 0 0 0 3.84v16.32A3.832 3.832 0 0 0 3.84 24h16.32A3.832 3.832 0 0 0 24 20.16V3.84A3.832 3.832 0 0 0 20.16 0zm8.567 4.11c2.074 0 3.538 0.061 4.393 0.186 1.127 0.168 1.94 0.46 2.438 0.877 0.672 0.578 1.009 1.613 1.009 3.104 0 0.161 -0.004 0.417 -0.01 0.768h-4.234c-0.014 -0.358 -0.039 -0.607 -0.074 -0.746 -0.098 -0.41 -0.42 -0.64 -0.966 -0.692 -0.484 -0.043 -1.66 -0.066 -3.53 -0.066 -1.85 0 -2.946 0.056 -3.289 0.165 -0.385 0.133 -0.578 0.474 -0.578 1.024 0 0.528 0.203 0.851 0.61 0.969 0.343 0.095 1.887 0.187 4.633 0.275 2.487 0.073 4.073 0.165 4.76 0.275 0.693 0.11 1.244 0.275 1.654 0.495 0.41 0.22 0.737 0.532 0.983 0.936 0.37 0.595 0.557 1.552 0.557 2.873 0 1.475 -0.182 2.557 -0.546 3.247 -0.364 0.683 -0.96 1.149 -1.785 1.398 -0.812 0.25 -3.05 0.374 -6.71 0.374 -2.226 0 -3.832 -0.062 -4.82 -0.187 -1.204 -0.147 -2.068 -0.434 -2.593 -0.86 -0.567 -0.456 -0.903 -1.1 -1.008 -1.93a10.522 10.522 0 0 1 -0.085 -1.434v-0.789H7.44c-0.007 0.74 0.136 1.216 0.43 1.428 0.154 0.102 0.33 0.167 0.525 0.203 0.196 0.037 0.54 0.063 1.03 0.077a166.2 166.2 0 0 0 2.405 0.022c1.862 -0.007 2.94 -0.018 3.234 -0.033 0.553 -0.044 0.917 -0.12 1.092 -0.23 0.245 -0.161 0.368 -0.52 0.368 -1.077 0 -0.38 -0.078 -0.648 -0.231 -0.802 -0.211 -0.212 -0.712 -0.325 -1.503 -0.34 -0.547 0 -1.688 -0.044 -3.425 -0.132 -1.794 -0.088 -2.956 -0.14 -3.488 -0.154 -1.387 -0.044 -2.364 -0.212 -2.932 -0.505 -0.728 -0.373 -1.205 -1.01 -1.429 -1.91 -0.126 -0.498 -0.189 -1.15 -0.189 -1.956 0 -1.698 0.309 -2.895 0.925 -3.59 0.462 -0.527 1.163 -0.875 2.102 -1.044 0.848 -0.146 2.865 -0.22 6.053 -0.22z" fill="#000000" stroke-width="1"></path></svg>